<svg xmlns="http://www.w3.org/2000/svg" version="1.1" xmlns:xlink="http://www.w3.org/1999/xlink" width="800" height="800"><svg id="SvgjsSvg1132" data-name="Layer 1" xmlns="http://www.w3.org/2000/svg" viewBox="0 0 800 800">
  <defs>
    <style>
      .cls-1 {
        fill: #ff6000;
      }
    </style>
  </defs>
  <path class="cls-1" d="M724.88,76.32c-45.35-17.85-131.47-8.46-196.69-8.46-72.77,0-144.11-2.56-207.26,2.11-97.58,7.21-169.94,49.8-219.95,103.63C49.88,228.6,10.03,306.49,10.03,402.02s38.7,174.03,90.94,228.41c49.7,51.74,123.24,97.43,215.72,103.63,170.57,11.43,284.11-84.07,334.16-205.15,32.5-78.63,71.78-173.18,105.75-255.91,10.26-24.99,30.45-56.76,33.84-86.71,6.75-59.7-25.17-94.08-65.56-109.98ZM610.67,446.44c-14.21,84.89-61.89,152.38-139.59,194.57-84.54,45.91-190.71,39.06-266.48-6.34-73.12-43.81-141.93-128.69-131.13-262.25,5.75-71.02,36.58-120.33,76.14-160.73,36.86-37.65,88.65-70.55,160.73-78.25,100.62-10.76,170.6,25.29,217.84,67.68,51.87,46.54,99.89,141.35,82.48,245.33ZM705.07,263.77c-8.47-26.02-19.17-49.82-28.14-75.34-16.16,21.97-29.67,46.58-45.39,68.99h-30.86c-.28-4.31,3.14-8.88,5.45-12.71,17.83-29.59,38.37-62.93,56.28-93.5-1.57-7.51-5.26-12.9-7.26-19.97h-20.88v-24.51h41.76c14.67,42.82,32.53,82.45,47.2,125.27,7.85-1.83,14.94-4.43,21.78-7.26,4.34,6.55,5,16.79,9.08,23.6-14.47,7.01-31.83,11.13-49.02,15.43Z"></path>
  <g>
    <path class="cls-1" d="M292.9,526.24l-59.68-51.33-92.67-.2c-9.79-.9-15.02-7.1-15.72-16.69v-114.68c.6-9.02,4.49-15.47,13.81-17.15l96.37-.37,100.15-86.68c8.74-8.07,22.67-4.83,26,6.72,1.65,101.57.21,203.37.72,305.02-.58,14.64-14.45,21.09-26.37,12.3-14.55-10.72-27.9-26.08-42.62-36.95Z"></path>
    <g>
      <path class="cls-1" d="M495.08,561.46c-11.33,11.5-29.55,1.24-26.27-13.94,1.18-5.44,10.1-15.51,13.6-20.74,51.8-77.31,49.86-177.27-2.33-253.77-3.39-4.97-11.28-13.13-12.18-18.78-1.96-12.43,10.52-21.84,21.99-16.66,4.92,2.22,9.89,9.97,13.12,14.45,63.29,87.91,64.05,206.46,2.62,295.56-3,4.35-6.95,10.22-10.55,13.88Z"></path>
      <path class="cls-1" d="M454.08,280.89c2.75,2.66,6.87,9.46,9.08,12.93,42.67,67.08,42.1,153.09-2.23,219.23-5.07,7.56-9.1,13.95-19.49,12.9-8.16-.82-14.28-9.14-13.27-17.13.77-6.03,9.23-15.92,12.62-21.72,30.74-52.69,30.69-118.62-.18-171.22-3.49-5.94-12.3-16.12-12.9-22.4-1.4-14.65,15.79-22.81,26.37-12.59Z"></path>
      <path class="cls-1" d="M396.58,320.02c12.68-1.85,17.2,7.79,22.14,17.28,21.01,40.4,20.91,88.27,0,128.69-3.95,7.63-8.4,16.8-18.4,16.96-4.55.07-10.12-2.97-12.74-6.65-7.4-10.39,1.27-19.2,5.66-28.53,13.29-28.27,13.81-61.37,1.12-89.99-2.87-6.47-10.18-16.14-10.19-22.7s5.48-14.04,12.41-15.06Z"></path>
    </g>
  </g>
</svg><style>@media (prefers-color-scheme: light) { :root { filter: none; } }
@media (prefers-color-scheme: dark) { :root { filter: none; } }
</style></svg>